<?xml version="1.0" standalone="no"?>
<!DOCTYPE svg PUBLIC "-//W3C//DTD SVG 20010904//EN"
 "http://www.w3.org/TR/2001/REC-SVG-20010904/DTD/svg10.dtd">
<svg version="1.0" xmlns="http://www.w3.org/2000/svg"
 width="32.000000pt" height="32.000000pt" viewBox="0 0 32.000000 32.000000"
 preserveAspectRatio="xMidYMid meet">

<g transform="translate(0.000000,32.000000) scale(0.100000,-0.100000)"
fill="#000000" stroke="none">
<path d="M90 159 c0 -44 3 -60 13 -57 6 3 13 14 15 26 3 22 22 32 22 12 0 -5
9 -10 20 -10 11 0 20 5 20 10 0 20 19 10 22 -12 2 -12 9 -23 16 -26 9 -3 12
13 12 57 0 34 -4 61 -10 61 -5 0 -20 -12 -34 -27 l-25 -27 -21 27 c-36 45 -50
36 -50 -34z"/>
</g>
</svg>
